PathFileType	4	(X/Y/Z)	C:\Users\WrightLab\Desktop\Jo\P5V18.trc
DataRate	CameraRate	NumFrames	NumMarkers	Units	OrigDataRate	OrigDataStartFrame	OrigNumFrames
100.00	100.00	       81	19	mm	100.00	112	       892
Frame#	Time	Headset_Front			Headset_Back			Headset_Left			Headset_Right			Left_Shoulder			Right_Shoulder			Sternum			C7			Left Elbow			Right Elbow			Left Wrist			Right Wrist			Left ASIS			Right ASIS			S2			Left Knee			Right Knee			Left Ankle			Right Ankle			
		X1	Y1	Z1	X2	Y2	Z2	X3	Y3	Z3	X4	Y4	Z4	X5	Y5	Z5	X6	Y6	Z6	X7	Y7	Z7	X8	Y8	Z8	X9	Y9	Z9	X10	Y10	Z10	X11	Y11	Z11	X12	Y12	Z12	X13	Y13	Z13	X14	Y14	Z14	X15	Y15	Z15	X16	Y16	Z16	X17	Y17	Z17	X18	Y18	Z18	X19	Y19	Z19	

112	1.110																																																	-74.71226	543.42163	1913.86975				-135.89185	138.26729	2006.61060	
113	1.120																																																	-72.26177	542.46869	1911.93201				-135.49951	138.01065	2006.98901	
114	1.130																																																	-69.28316	541.84283	1910.45325				-135.47690	138.01456	2007.02612	
115	1.140																																																	-64.56796	542.95770	1904.09607				-135.43408	137.99797	2007.00854	
116	1.150																																																	-61.81386	542.31604	1901.23193				-135.48712	137.96529	2007.00659	
117	1.160																																																	-59.32188	541.85461	1898.72070				-135.39987	137.99614	2006.93945	
118	1.170																																																	-57.25076	541.85114	1896.85425				-135.49835	138.06874	2006.98621	
119	1.180																																																	-54.24055	541.84961	1894.40417				-135.84874	138.32249	2006.57495	
120	1.190																																																	-52.13390	541.64185	1892.12427				-135.94078	138.31664	2006.54932	
121	1.200																																																	-49.99532	541.67096	1889.79504				-136.54128	138.36732	2005.47852	
122	1.210																																																	-47.84982	542.48236	1886.96375				-136.62976	138.44078	2005.53076	
123	1.220																																																	-49.24056	542.22925	1887.58337				-136.63725	138.45662	2005.50378	
124	1.230																																																	-49.19120	542.73450	1885.54236				-136.77225	138.48914	2005.53345	
125	1.240																																																	-49.39232	542.62579	1882.98645				-136.98982	138.59132	2005.46667	
126	1.250																																																	-49.84451	542.02112	1883.64563				-137.11621	138.67599	2005.38403	
127	1.260																																																	-50.41486	541.39795	1884.47253				-137.21140	138.69948	2004.90527	
128	1.270																																																	-51.44662	541.67242	1881.18713				-137.24480	138.79601	2005.18481	
129	1.280																																																	-52.14801	541.11908	1882.19592				-137.40422	138.67992	2004.98279	
130	1.290																																																	-52.91507	540.47888	1883.30017				-137.56181	138.68912	2005.12317	
131	1.300																																																	-53.79332	540.49506	1881.72375				-137.67973	138.73756	2005.09326	
132	1.310																																																	-54.50508	540.20660	1880.82104				-137.85710	138.64108	2005.28796	
133	1.320																																																	-54.97924	539.75958	1881.50464				-138.12265	138.50891	2005.51233	
134	1.330																																																	-55.68318	539.20605	1882.51587				-138.12550	138.55232	2005.51721	
135	1.340																																																	-56.53993	538.59979	1883.74438				-138.36137	138.64273	2005.89612	
136	1.350																																																	-57.56894	538.90503	1881.47217				-138.51315	138.62303	2005.83752	
137	1.360																																																	-58.32294	538.35712	1882.55286				-138.63129	138.62479	2005.86804	
138	1.370																																		-136.25371	1514.99902	1382.29993													-58.90709	537.83746	1882.31470				-138.66081	138.72050	2005.90308	
139	1.380																																		-137.57872	1514.17517	1380.68445													-59.49788	538.18384	1882.39392				-138.89635	138.69588	2005.91138	
140	1.390																																		-137.02681	1514.06152	1379.76208													-60.11257	538.39838	1881.10205				-139.00531	138.72311	2005.94177	
141	1.400																																		-138.20715	1513.01660	1377.00366													-60.65285	537.96417	1881.87695				-139.18558	138.91640	2005.99963	
142	1.410																																		-137.77113	1512.30640	1376.11975													-61.70600	537.99744	1881.94238				-139.98228	139.76050	2005.81738	
143	1.420																																		-138.38509	1511.67725	1374.20801													-62.63963	537.97943	1881.78101				-140.45439	140.22244	2005.61450	
144	1.430																																		-138.85809	1510.74548	1372.47400													-63.51870	537.68396	1879.71680				-140.54216	140.24449	2005.61560	
145	1.440																																		-139.71501	1510.05127	1370.79590													-64.67329	538.34241	1878.42981				-140.65813	140.38286	2005.70935	
146	1.450																																		-141.06651	1509.03284	1368.70251													-65.67057	538.48828	1878.41235				-140.68860	140.49002	2005.75671	
147	1.460																																		-141.18018	1508.24353	1367.63892													-66.94870	538.47595	1875.42859				-140.80965	140.56709	2005.83118	
148	1.470																																		-141.75343	1507.60034	1366.02222													-68.51868	538.85699	1874.73474				-140.82077	140.72293	2005.65186	
149	1.480																																		-142.31792	1506.93103	1364.53931													-70.11674	538.73663	1872.73730				-140.85046	140.90044	2005.49792	
150	1.490																																		-142.83366	1506.33374	1363.14124													-71.39835	538.39075	1872.60120				-140.90703	140.94244	2005.49683	
151	1.500																																		-143.36249	1505.70862	1361.74634													-72.79135	538.00659	1872.62195				-141.08559	141.46941	2005.31763	
152	1.510																																		-143.81448	1505.17151	1360.56311													-74.68046	538.35339	1870.07825				-141.12053	141.60291	2005.11108	
153	1.520																																		-144.02563	1503.29248	1359.07434													-76.10349	537.89191	1870.14185				-141.46016	141.79268	2004.79150	
154	1.530																																		-144.43176	1502.23950	1357.78589													-77.29514	537.76904	1867.04736				-141.37328	141.94363	2004.58362	
155	1.540																																		-144.98624	1501.80957	1356.64734													-79.17084	538.62103	1865.35693				-141.41707	142.08249	2004.51538	
156	1.550																																		-144.91411	1501.51428	1356.07483													-80.67942	538.38513	1862.71326				-141.37300	142.27705	2004.39465	
157	1.560																																		-145.20059	1500.73645	1355.29980													-81.77054	537.84546	1862.34851				-141.90179	142.68719	2003.78479	
158	1.570																																		-145.27396	1500.51135	1354.78552													-83.05370	538.55396	1856.63586				-141.74684	142.91498	2004.30469	
159	1.580																																		-146.47868	1499.93213	1353.36377													-84.30421	537.53510	1857.14404				-142.38445	143.72734	2003.77344	
160	1.590																																		-147.21873	1499.82263	1352.19312													-85.49660	538.35876	1852.61060				-142.49706	143.98303	2003.68042	
161	1.600																																		-147.09247	1499.62610	1351.62708													-87.20981	538.35394	1853.11206				-142.43434	144.12700	2003.64014	
162	1.610																																		-146.95236	1499.40662	1350.99585													-88.09753	538.54321	1849.52063				-142.91718	143.81573	2003.29175	
163	1.620																																		-147.77461	1499.09326	1349.84058													-88.84881	538.23444	1848.21448				-142.56630	144.40973	2003.38672	
164	1.630																																		-148.40041	1498.82288	1348.55603													-89.50849	539.63226	1844.67566				-142.87469	143.92024	2003.15259	
165	1.640																																		-149.14369	1498.35498	1347.40613													-90.49701	539.52155	1843.20984				-142.83849	144.09004	2002.93005	
166	1.650																																		-148.87260	1499.35669	1347.13745													-91.14803	539.85071	1839.38538				-142.84451	144.10619	2002.89539	
167	1.660																																		-149.11143	1499.16553	1346.23169													-91.24044	539.22455	1839.39917				-142.89337	144.33688	2002.68909	
168	1.670																																		-149.76413	1499.46167	1345.03064													-91.69646	539.68292	1837.28906				-142.90091	144.33513	2002.68433	
169	1.680																																		-149.42628	1499.53381	1344.41907													-91.60544	539.24097	1832.33826				-142.90276	144.34818	2002.65955	
170	1.690																																		-149.72119	1499.01965	1343.22388													-91.22713	539.08636	1831.92200				-142.65706	144.82341	2002.85486	
171	1.700																																		-150.31708	1498.92468	1342.13110													-90.50607	538.63788	1830.92529				-142.67055	144.85152	2002.86560	
172	1.710																																		-150.10847	1498.96924	1341.71155													-90.02475	538.46710	1829.99622				-142.93002	144.31918	2002.68213	
173	1.720																																		-150.40376	1499.25574	1341.07007													-89.47548	538.21667	1828.92151				-142.66692	144.89729	2002.92542	
174	1.730																																		-150.23463	1499.30493	1340.74829													-88.75394	537.94153	1826.60059				-142.73160	144.89449	2002.94727	
175	1.740																																		-149.67630	1499.44385	1340.16492													-87.85602	537.82941	1825.57019				-142.77684	144.86995	2002.92944	
176	1.750																																		-149.39732	1499.58337	1339.75134													-87.14928	538.26501	1823.00305				-142.73546	144.87169	2002.90234	
177	1.760																																		-149.00296	1499.69836	1339.31250													-86.47768	538.45154	1822.28796				-142.83208	144.89301	2002.98401	
178	1.770																																		-148.87669	1499.72058	1339.05054													-86.06825	538.40277	1821.44434				-142.71413	144.88052	2002.90625	
179	1.780																																		-148.71924	1499.77478	1338.74854													-85.87386	538.41205	1821.23511				-142.80342	144.85350	2002.91797	
180	1.790																																		-148.63316	1499.75757	1338.52307													-84.68176	538.96649	1818.96313				-142.84749	144.80788	2003.21082	
181	1.800																																		-148.30405	1499.66870	1338.20557													-84.92974	538.81403	1818.72278				-143.07265	144.78017	2003.35510	
182	1.810																																		-148.69753	1499.88635	1337.69507													-85.57201	538.81000	1818.67627				-143.07201	144.75705	2003.32849	
183	1.820																																		-148.38495	1499.77271	1337.45361													-85.94113	538.71747	1818.94897				-143.14812	144.88454	2003.13281	
184	1.830																																		-148.07735	1499.71960	1337.18347													-86.61667	538.36249	1819.68835				-143.14725	144.84096	2003.07996	
185	1.840																																		-147.74147	1499.70642	1336.90259													-87.31576	538.25708	1820.23865				-143.19008	144.92711	2003.14392	
186	1.850																																		-147.66170	1499.71619	1336.73059													-88.41564	537.99585	1820.86133				-143.19890	145.01523	2003.16895	
187	1.860																																		-147.26294	1499.75952	1336.40625													-89.08260	538.25775	1821.05920				-143.25911	144.94655	2003.12817	
188	1.870																																		-147.19911	1499.76855	1336.27039													-90.22663	538.12128	1821.94336				-143.30833	145.00922	2003.18018	
189	1.880																																		-146.62625	1499.69238	1335.95789													-90.90075	537.86627	1822.66956				-143.39357	144.94020	2003.17725	
190	1.890																																		-146.55295	1499.71863	1335.82483													-92.25649	537.42297	1824.07019				-143.41302	144.97636	2003.18713	
191	1.900																																		-147.39464	1500.23962	1335.06348													-93.14452	536.96631	1825.13953				-143.52841	144.93768	2003.23547	
192	1.910																																		-147.01357	1499.15588	1334.89758													-93.71485	536.80042	1825.52893				-143.76479	144.74675	2003.68982	
